# xmcd
#
# Track frame offsets:
#	150
#	14043
#	26860
#	42033
#	66422
#	78703
#	100768
#	116353
#	128094
#	141815
#	152280
#	164961
#	182958
#	192775
#	206380
#
# Disc length: 2891 seconds
#
# Revision: 1
# Processed by: cddbd v1.5PL3 Copyright (c) Steve Scherf et al.
# Submitted via: audiograbber 1.83.01
#
DISCID=d10b490f
DTITLE=Chantal Hamel - Pour vous mes amis
DYEAR=2001
DGENRE=Country
TTITLE0=Amène-moi danser ce soir
TTITLE1=L'hiver de par che nous
TTITLE2=Dans cette lettre
TTITLE3=La promesse
TTITLE4=Pour vous mes amis
TTITLE5=La sérénité
TTITLE6=Donne-moi encore une chance
TTITLE7=Wo Wo Ti-gars
TTITLE8=Repose-toi petite soeur
TTITLE9=La vie d'un biker
TTITLE10=La cabane en bois
TTITLE11=Répond à ma question
TTITLE12=Maudit camionneur
TTITLE13=Monsieur guitare
TTITLE14=Ensemble tous les deux
EXTD=
EXTT0=
EXTT1=
EXTT2=
EXTT3=
EXTT4=
EXTT5=
EXTT6=
EXTT7=
EXTT8=
EXTT9=
EXTT10=
EXTT11=
EXTT12=
EXTT13=
EXTT14=
PLAYORDER=
